<svg xmlns="http://www.w3.org/2000/svg" class="" id="Capa_1" style="enable-background:new 0 0 893.4 893.4;" viewBox="0 0 893.4 893.4" x="0px" y="0px" width="512" height="512" xmlns:xlink="http://www.w3.org/1999/xlink" version="1.1" xmlns:xml="http://www.w3.org/XML/1998/namespace" xml:space="preserve"><g><g>
	<path class="active-path" style="fill:#1E5E9B" d="M 747.3 0 H 146.101 c -13.8 0 -25 11.2 -25 25 v 700.5 H 234 c 30.3 0 55 24.7 55 55 v 112.9 H 747.3 c 13.801 0 25 -11.2 25 -25 V 25 C 772.3 11.2 761.101 0 747.3 0 Z M 636.901 655.6 H 256.5 c -13.8 0 -25 -11.199 -25 -25 c 0 -13.8 11.2 -25 25 -25 h 380.401 c 13.799 0 25 11.2 25 25 C 661.901 644.4 650.7 655.6 636.901 655.6 Z M 636.901 543.5 H 256.5 c -13.8 0 -25 -11.2 -25 -25 s 11.2 -25 25 -25 h 380.401 c 13.799 0 25 11.2 25 25 S 650.7 543.5 636.901 543.5 Z M 661.901 406.4 c 0 13.8 -11.201 25 -25 25 H 256.5 c -13.8 0 -25 -11.2 -25 -25 l 0 0 c 0 -13.801 11.2 -25 25 -25 h 380.401 C 650.7 381.4 661.901 392.6 661.901 406.4 L 661.901 406.4 Z M 661.901 98.3 c 0 12.5 -10.102 22.6 -22.602 22.6 l -97.6 1 v 55.7 l 81.201 -1 c 12.5 0 22.6 10.1 22.6 22.6 l 0 0 c 0 12.5 -10.1 22.6 -22.6 22.6 l -81.201 1 v 82 c 0 12.5 -10.1 22.6 -22.6 22.6 h -8.1 c -12.5 0 -22.6 -10.1 -22.6 -22.6 V 98.3 c 0 -12.5 10.1 -22.6 22.6 -22.6 H 639.3 C 651.8 75.7 661.901 85.8 661.901 98.3 L 661.901 98.3 Z" data-original="#000000" data-old_color="#2267A8" />
	<path class="active-path" style="fill:#1E5E9B" d="M 234 755.5 h -110.9 h -2 L 259 893.4 v -0.7 V 780.5 C 259 766.7 247.801 755.5 234 755.5 Z" data-original="#000000" data-old_color="#2267A8" />
</g></g> </svg>